# AST/ASF file generated using VICON BodyLanguage
# -----------------------------------------------
:version 1.10
:name VICON
:units
  mass 1.0
  length 0.45
  angle deg
:documentation
   .ast/.asf automatically generated from VICON data using
   VICON BodyBuilder and BodyLanguage model FoxedUp or BRILLIANT.MOD
:root
   order TX TY TZ RX RY RZ
   axis XYZ
   position 0 0 0  
   orientation 0 0 0 
:bonedata
  begin
     id 1 
     name lhipjoint
     direction 0.643824 -0.71708 0.266994 
     length 2.52133 
     axis 0 0 0  XYZ
  end
  begin
     id 2 
     name lfemur
     direction 0.34202 -0.939693 0  
     length 7.51824  
     axis 0 0 20  XYZ
    dof rx ry rz
    limits (-160.0 20.0)
           (-70.0 70.0)
           (-60.0 70.0)
  end
  begin
     id 3 
     name ltibia
     direction 0.34202 -0.939693 0   
     length 7.3685   
     axis 0 0 20   XYZ
    dof rx
    limits (-10.0 170.0)
  end
  begin
     id 4 
     name lfoot
     direction 0.105419 -0.289636 0.951314   
     length 2.20972   
     axis -90 7.62852e-016 20   XYZ
    dof rx rz
    limits (-45.0 90.0)
           (-70.0 20.0)
  end
  begin
     id 5 
     name ltoes
     direction 1.53549e-011 -4.21833e-011 1   
     length 1.10139   
     axis -90 7.62852e-016 20   XYZ
    dof rx
    limits (-90.0 20.0)
  end
  begin
     id 6 
     name rhipjoint
     direction -0.608823 -0.743445 0.276811   
     length 2.43192  
     axis 0 0 0  XYZ 
  end
  begin
     id 7 
     name rfemur
     direction -0.34202 -0.939693 0   
     length 7.69715   
     axis 0 0 -20   XYZ
    dof rx ry rz
    limits (-160.0 20.0)
           (-70.0 70.0)
           (-70.0 60.0)
  end
  begin
     id 8 
     name rtibia
     direction -0.34202 -0.939693 0   
     length 7.44924   
     axis 0 0 -20   XYZ
    dof rx
    limits (-10.0 170.0)
 end
 begin
     id 9 
     name rfoot
     direction -0.103614 -0.284677 0.953007   
     length 2.22623  
     axis -90 -7.62852e-016 -20   XYZ
    dof rx rz
    limits (-45.0 90.0)
           (-20.0 70.0)
  end
  begin
     id 10 
     name rtoes
     direction -1.53537e-011 -4.22026e-011 1   
     length 1.11   
     axis -90 -7.62852e-016 -20   XYZ
    dof rx
    limits (-90.0 20.0)
  end
  begin
     id 11 
     name lowerback
     direction -0.0101212 0.99662 -0.0815298   
     length 2.08277   
     axis 0 0 0   XYZ
    dof rx ry rz
    limits (-20.0 45.0)
           (-30.0 30.0)
           (-30.0 30.0)
  end
  begin
     id 12 
     name upperback
     direction 0.024314 0.999591 -0.0150645   
     length 2.08524   
     axis 0 0 0   XYZ
    dof rx ry rz
    limits (-20.0 45.0)
           (-30.0 30.0)
           (-30.0 30.0)
  end
  begin
     id 13 
     name thorax
     direction 0.0285959 0.999323 0.0231357   
     length 2.09645   
     axis 0 0 0   XYZ
    dof rx ry rz
    limits (-20.0 45.0)
           (-30.0 30.0)
           (-30.0 30.0)
  end
  begin
     id 14 
     name lowerneck
     direction -0.065512 0.979301 0.191515   
     length 1.63798   
     axis 0 0 0   XYZ
    dof rx ry rz
    limits (-20.0 45.0)
           (-30.0 30.0)
           (-30.0 30.0)
  end
  begin
     id 15 
     name upperneck
     direction 0.0498479 0.98191 -0.182667   
     length 1.68731   
     axis 0 0 0   XYZ
    dof rx ry rz
    limits (-20.0 45.0)
           (-30.0 30.0)
           (-30.0 30.0)
  end
  begin
     id 16
     name head
     direction 0.0230358 0.996257 -0.0833175  
     length 1.69785  
     axis 0 0 0   XYZ
    dof rx ry rz
    limits (-20.0 45.0)
           (-30.0 30.0)
           (-30.0 30.0)
  end
  begin
     id 17 
     name lclavicle
     direction 0.967963 0.201165 -0.150269  
     length 3.63976  
     axis 0 0 0   XYZ
    dof ry rz
    limits (-20.0 10.0)
           (0.0 20.0)
  end
  begin
     id 18 
     name lhumerus
     direction 1 -4.48954e-011 -2.92837e-028   
     length 5.32462   
     axis 180 -30 -90   XYZ
    dof rx ry rz
    limits (-60.0 90.0)
           (-90.0 90.0)
           (-90.0 90.0)
  end
  begin
     id 19
     name lradius
     direction 1 -4.48958e-011 -6.39511e-027   
     length 3.48402   
     axis 180 -30 -90   XYZ
    dof rx
    limits (-10.0 170.0)
  end
  begin
     id 20
     name lwrist
     direction 1 -4.48975e-011 -1.1413e-026   
     length 1.74201   
     axis 6.88575e-015 90 90   XYZ
    dof ry
    limits (-180.0 0.0)
 end
  begin
     id 21 
     name lhand
     direction 1 -4.48899e-011 -2.28192e-026   
     length 0.572476   
     axis 1.45643e-014 90 90   XYZ
    dof rx rz
    limits (-90.0 90.0)
           (-45.0 45.0)
  end
  begin
     id 22 
     name lfingers
     direction 1 -4.49155e-011 -4.5684e-026   
     length 0.461545   
     axis 2.91283e-014 90 90   XYZ
    dof rx
    limits (0.0 90.0)
  end
  begin
     id 23
     name lthumb
     direction 0.707107 -6.34943e-011 0.707107   
     length 0.662688   
     axis -90 45 -2.25915e-014   XYZ
    dof rx rz
    limits (-45.0 45.0)
           (-45.0 45.0)
  end
  begin
     id 24 
     name rclavicle
     direction -0.964103 0.264019 -0.0282629   
     length 3.54491  
     axis 0 0 0   XYZ 
    dof ry rz
    limits (-10.0 20.0)
           (-20.0 0.0)
  end
  begin
     id 25 
     name rhumerus
     direction -1 -4.48964e-011 -2.45032e-027  
     length 5.33589   
     axis 180 30 90   XYZ
    dof rx ry rz
    limits (-90.0 60.0)
           (-90.0 90.0)
           (-90.0 90.0)
  end
  begin
     id 26 
     name rradius
     direction -1 -4.48987e-011 -1.55093e-027   
     length 3.64134   
     axis 180 30 90   XYZ
    dof rx
    limits (-10.0 170.0)
  end
  begin
     id 27 
     name rwrist
     direction -1 -4.4897e-011 -1.14128e-026   
     length 1.82067   
     axis 6.88575e-015 -90 -90   XYZ
    dof ry
    limits (-180.0 0.0)
  end
  begin
     id 28
     name rhand
     direction -1 -4.49021e-011 -2.28301e-026   
     length 0.734811   
     axis 1.45643e-014 -90 -90   XYZ
    dof rx rz
    limits (-90.0 90.0)
           (-45.0 45.0)
  end
  begin
     id 29
     name rfingers
     direction -1 -4.48862e-011 -4.56319e-026   
     length 0.592424   
     axis 2.91283e-014 -90 -90   XYZ
    dof rx
    limits (0.0 90.0)
  end
  begin
     id 30
     name rthumb
     direction -0.707107 -6.34978e-011 0.707107   
     length 0.850605   
     axis -90 -45 2.25915e-014   XYZ
    dof rx rz
    limits (-45.0 45.0)
           (-45.0 45.0)
  end
:hierarchy
  begin
    root lhipjoint rhipjoint lowerback
    lhipjoint lfemur
    lfemur ltibia
    ltibia lfoot
    lfoot ltoes
    rhipjoint rfemur
    rfemur rtibia
    rtibia rfoot
    rfoot rtoes
    lowerback upperback
    upperback thorax
    thorax lowerneck lclavicle rclavicle
    lowerneck upperneck
    upperneck head
    lclavicle lhumerus
    lhumerus lradius
    lradius lwrist
    lwrist lhand lthumb
    lhand lfingers
    rclavicle rhumerus
    rhumerus rradius
    rradius rwrist
    rwrist rhand rthumb
    rhand rfingers
  end

#!OML:ASF F:\VICON\USERDATA\INSTALL\rory3\rory3.ASF
:FULLY-SPECIFIED
:DEGREES
1
root -12.5978 17.6923 -4.81113 9.20811 48.117 4.2283
lowerback 2.46258 0.377026 -6.70374
upperback 0.836275 0.352303 0.856961
thorax -0.563829 0.174879 4.64061
lowerneck -15.6075 1.86174 -8.40048
upperneck 38.5597 6.78679 -0.0820858
head 16.2026 1.86057 2.7363
rclavicle -8.94034e-014 9.93923e-015
rhumerus -31.2797 -4.5207 -81.6813
rradius 35.6131
rwrist 19.8199
rhand -21.4181 3.62572
rfingers 7.12502
rthumb 4.97069 -26.296
lclavicle -8.94034e-014 9.93923e-015
lhumerus -31.7003 18.0905 76.3628
lradius 23.536
lwrist -8.67709
lhand -10.939 25.3067
lfingers 7.12502
lthumb 15.0793 54.7375
rfemur -33.0786 -2.8076 16.3377
rtibia 36.7757
rfoot -12.0544 -7.93137
rtoes 8.07448
lfemur -13.15 3.72458 -27.7938
ltibia 26.8783
lfoot -15.8804 -1.34523
ltoes -8.20103
2
root -12.5771 17.6949 -4.79444 9.17677 48.2601 4.19323
lowerback 2.54105 0.348778 -6.62813
upperback 0.86485 0.311822 0.845409
thorax -0.572678 0.154303 4.58688
lowerneck -15.5069 1.88148 -8.34123
upperneck 38.5669 6.80603 -0.123622
head 16.1854 1.8741 2.70864
rclavicle -2.5842e-015 -9.93923e-016
rhumerus -31.338 -4.80059 -81.4879
rradius 35.0934
rwrist 19.913
rhand -21.4619 3.40168
rfingers 7.12502
rthumb 4.92837 -26.521
lclavicle -2.5842e-015 -9.93923e-016
lhumerus -31.7143 17.7209 76.6031
lradius 23.6648
lwrist -8.57752
lhand -10.9025 25.3907
lfingers 7.12502
lthumb 15.1144 54.8188
rfemur -33.1961 -2.67312 16.3542
rtibia 36.3807
rfoot -11.3043 -7.54236
rtoes 8.40545
lfemur -13.0158 3.6151 -27.7381
ltibia 26.8111
lfoot -15.9128 -1.42363
ltoes -7.52418
3
root -12.5575 17.6949 -4.7756 9.087 48.3541 4.11143
lowerback 2.67241 0.324648 -6.52375
upperback 0.902322 0.274259 0.831821
thorax -0.602392 0.135729 4.51463
lowerneck -15.5271 1.92041 -8.3146
upperneck 38.6548 6.86892 -0.114278
head 16.2328 1.90116 2.72271
rclavicle -1.08338e-014 -2.36554e-014
rhumerus -31.3635 -5.28592 -81.2465
rradius 34.5856
rwrist 20.1232
rhand -21.4548 3.42796
rfingers 7.12502
rthumb 4.93524 -26.4946
lclavicle -1.08338e-014 -2.36554e-014
lhumerus -31.7105 17.1696 76.8703
lradius 23.8573
lwrist -8.22062
lhand -10.9265 25.4496
lfingers 7.12502
lthumb 15.0913 54.8794
rfemur -33.2746 -2.28019 16.3197
rtibia 36.0114
rfoot -10.6584 -7.45146
rtoes 9.05784
lfemur -12.8635 3.51495 -27.656
ltibia 26.7717
lfoot -15.977 -1.41583
ltoes -7.64474
4
root -12.5366 17.6959 -4.75476 8.91126 48.4394 3.84956
lowerback 2.66214 0.305645 -6.31974
upperback 0.976745 0.257683 0.881441
thorax -0.517232 0.122862 4.45164
lowerneck -15.597 1.89891 -8.38904
upperneck 38.6961 6.86224 -0.0825975
head 16.2679 1.88808 2.75185
rclavicle 1.25036e-013 1.21259e-014
rhumerus -31.2811 -5.85016 -80.9501
rradius 34.0281
rwrist 20.3569
rhand -21.1898 3.39808
rfingers 7.12502
rthumb 5.19111 -26.5183
lclavicle 1.25036e-013 1.21259e-014
lhumerus -31.6672 16.9899 77.0951
lradius 24.0146
lwrist -8.09321
lhand -10.9126 25.5445
lfingers 7.12502
lthumb 15.1047 54.9734
rfemur -33.3807 -1.95455 16.4552
rtibia 35.6926
rfoot -9.89725 -7.45353
rtoes 9.18219
lfemur -12.7287 3.30525 -27.451
ltibia 26.6918
lfoot -16.0396 -1.26091
ltoes -8.03504
5
root -12.5158 17.7016 -4.7314 8.91867 48.5627 3.85675
lowerback 2.65336 0.271316 -6.40913
upperback 1.02189 0.212167 0.936214
thorax -0.460287 0.096936 4.5607
lowerneck -15.4752 1.89345 -8.34385
upperneck 38.6207 6.87768 -0.232798
head 16.2109 1.88666 2.6752
rclavicle -7.77248e-014 1.5704e-014
rhumerus -31.368 -6.18015 -80.6404
rradius 33.6123
rwrist 20.4745
rhand -21.1306 3.06665
rfingers 7.12502
rthumb 5.24825 -26.8484
lclavicle -7.77248e-014 1.5704e-014
lhumerus -31.6229 17.1573 77.2347
lradius 23.9829
lwrist -8.32763
lhand -10.882 25.5466
lfingers 7.12502
lthumb 15.1342 54.9733
rfemur -33.4561 -1.64151 16.3939
rtibia 35.4356
rfoot -9.29735 -7.59326
rtoes 9.07483
lfemur -12.5676 3.2298 -27.4155
ltibia 26.6057
lfoot -16.1169 -1.37004
ltoes -7.4892
6
root -12.4964 17.7017 -4.71143 9.04523 48.7877 4.00406
lowerback 2.75263 0.242871 -6.47798
upperback 1.02335 0.165705 0.915195
thorax -0.508567 0.0753127 4.57911
lowerneck -15.4196 1.83561 -8.415
upperneck 38.6834 6.78022 -0.138737
head 16.2266 1.84857 2.7124
rclavicle -6.26172e-015 5.96354e-015
rhumerus -31.6275 -6.79001 -80.2695
rradius 33.4293
rwrist 20.6766
rhand -21.029 3.15885
rfingers 7.12502
rthumb 5.34631 -26.7537
lclavicle -6.26172e-015 5.96354e-015
lhumerus -31.5875 16.8823 77.4749
lradius 24.0705
lwrist -8.29
lhand -10.6833 25.4368
lfingers 7.12502
lthumb 15.3256 54.8489
rfemur -33.5384 -1.60729 16.2752
rtibia 35.2482
rfoot -8.87156 -7.5622
rtoes 10.7189
lfemur -12.4445 3.26713 -27.4828
ltibia 26.5112
lfoot -16.17 -1.60275
ltoes -7.4227
7
root -12.4747 17.701 -4.68966 9.0727 48.9771 3.97642
lowerback 2.77184 0.175551 -6.50281
upperback 1.00484 0.0737177 0.967757
thorax -0.526787 0.0302681 4.65087
lowerneck -15.3761 1.81799 -8.41624
upperneck 38.7551 6.77239 -0.167802
head 16.2566 1.83923 2.70018
rclavicle 3.15074e-014 -7.35503e-015
rhumerus -31.9684 -7.21069 -79.9345
rradius 33.3804
rwrist 20.9056
rhand -21.0847 3.02818
rfingers 7.12502
rthumb 5.29258 -26.8857
lclavicle 3.15074e-014 -7.35503e-015
lhumerus -31.708 16.77 77.6591
lradius 24.2146
lwrist -8.35659
lhand -10.6283 25.0268
lfingers 7.12502
lthumb 15.3785 54.4349
rfemur -33.647 -1.49113 16.2683
rtibia 35.1427
rfoot -8.82444 -7.739
rtoes 13.4837
lfemur -12.3186 3.25741 -27.4314
ltibia 26.3882
lfoot -16.2131 -1.75593
ltoes -7.57506
8
root -12.4542 17.6977 -4.66735 9.07874 49.1148 3.96884
lowerback 2.79409 0.110754 -6.52006
upperback 1.04187 -0.0129867 1.02069
thorax -0.489674 -0.0153694 4.71858
lowerneck -15.4369 1.83815 -8.50882
upperneck 38.8586 6.8446 -0.137069
head 16.3178 1.854 2.74744
rclavicle -2.92213e-014 -7.7526e-015
rhumerus -32.1379 -7.50788 -79.6408
rradius 33.2188
rwrist 21.0146
rhand -21.0183 2.74613
rfingers 7.12502
rthumb 5.35669 -27.1662
lclavicle -2.92213e-014 -7.7526e-015
lhumerus -31.7241 16.7138 77.8387
lradius 24.2889
lwrist -8.39908
lhand -10.7452 24.9033
lfingers 7.12502
lthumb 15.2659 54.3199
rfemur -33.7418 -1.35947 16.2612
rtibia 35.1007
rfoot -8.52272 -8.18255
rtoes 14.8433
lfemur -12.1567 2.88959 -27.3927
ltibia 26.294
lfoot -16.2358 -1.56135
ltoes -7.34661
9
root -12.4326 17.6981 -4.64735 9.20797 49.2354 4.0056
lowerback 2.76232 0.0703901 -6.44564
upperback 1.03271 -0.0631632 0.982009
thorax -0.475128 -0.0405701 4.63766
lowerneck -15.4586 1.8391 -8.51653
upperneck 38.9119 6.84556 -0.102922
head 16.3484 1.85513 2.76648
rclavicle -3.69243e-014 -1.33186e-014
rhumerus -32.3542 -7.77092 -79.4707
rradius 33.0222
rwrist 20.9222
rhand -21.0729 2.48625
rfingers 7.12502
rthumb 5.304 -27.4274
lclavicle -3.69243e-014 -1.33186e-014
lhumerus -31.6925 16.2175 78.0621
lradius 24.4248
lwrist -8.17331
lhand -10.7512 25.3577
lfingers 7.12502
lthumb 15.2601 54.7749
rfemur -33.9663 -1.45353 16.3026
rtibia 35.1273
rfoot -7.81671 -8.57911
rtoes 14.5722
lfemur -12.1097 2.60719 -27.4011
ltibia 26.2256
lfoot -16.2957 -1.4429
ltoes -6.91443
10
root -12.4112 17.6979 -4.6298 9.33851 49.4601 4.00424
lowerback 2.73718 0.047535 -6.33456
upperback 1.01268 -0.0898005 0.965191
thorax -0.478772 -0.053114 4.55808
lowerneck -15.4975 1.75512 -8.5242
upperneck 38.9733 6.71333 -0.0519117
head 16.3943 1.80283 2.77144
rclavicle 2.25124e-014 -7.55382e-015
rhumerus -32.6174 -8.07434 -79.2057
rradius 32.8603
rwrist 20.7281
rhand -21.0443 2.17148
rfingers 7.12502
rthumb 5.33156 -27.7415
lclavicle 2.25124e-014 -7.55382e-015
lhumerus -31.6127 15.7009 78.3735
lradius 24.594
lwrist -7.83074
lhand -10.8337 25.7011
lfingers 7.12502
lthumb 15.1807 55.1242
rfemur -34.2133 -1.57576 16.3541
rtibia 35.2553
rfoot -7.4283 -9.14644
rtoes 16.4146
lfemur -12.1203 2.29788 -27.3702
ltibia 26.1541
lfoot -16.3213 -1.39406
ltoes -6.41864
11
root -12.3916 17.697 -4.60853 9.44734 49.6428 4.00903
lowerback 2.79419 0.042629 -6.30173
upperback 0.959127 -0.100983 0.979417
thorax -0.564789 -0.054539 4.55494
lowerneck -15.4328 1.68374 -8.47685
upperneck 39.0188 6.60339 -0.083989
head 16.4128 1.76011 2.7308
rclavicle 7.58364e-014 -1.98785e-016
rhumerus -32.9334 -8.57995 -78.8493
rradius 32.7364
rwrist 20.6518
rhand -21.0187 2.11935
rfingers 7.12502
rthumb 5.35632 -27.793
lclavicle 7.58364e-014 -1.98785e-016
lhumerus -31.6544 15.453 78.622
lradius 24.7739
lwrist -7.62378
lhand -10.8978 25.6334
lfingers 7.12502
lthumb 15.1189 55.0612
rfemur -34.4562 -1.73042 16.4536
rtibia 35.4918
rfoot -7.24178 -9.87055
rtoes 19.1803
lfemur -12.1065 2.08695 -27.335
ltibia 26.0992
lfoot -16.3864 -1.36849
ltoes -6.42896
